<svg width="376" height="737" viewBox="0 0 376 737" fill="none" xmlns="http://www.w3.org/2000/svg">
<path opacity="0.5" d="M146.336 203L145.387 203.316L145.615 204H146.336V203ZM128.192 148.568L129.141 148.252L128.913 147.568H128.192V148.568ZM53.024 148.568V147.568H52.296L52.0723 148.261L53.024 148.568ZM35.456 203V204H36.184L36.4077 203.307L35.456 203ZM2.336 203L1.38951 202.677L0.938493 204H2.336V203ZM70.88 1.976V0.975998H70.1644L69.9335 1.65327L70.88 1.976ZM111.776 1.976L112.722 1.65327L112.492 0.975998H111.776V1.976ZM180.32 203V204H181.718L181.267 202.677L180.32 203ZM91.328 31.928L92.2791 31.6192L92.0547 30.928H91.328V31.928ZM89.888 31.928V30.928H89.1635L88.9378 31.6164L89.888 31.928ZM60.8 120.632L59.8498 120.32L59.4197 121.632H60.8V120.632ZM120.128 120.632V121.632H121.504L121.079 120.323L120.128 120.632ZM147.285 202.684L129.141 148.252L127.243 148.884L145.387 203.316L147.285 202.684ZM128.192 147.568H53.024V149.568H128.192V147.568ZM52.0723 148.261L34.5043 202.693L36.4077 203.307L53.9757 148.875L52.0723 148.261ZM35.456 202H2.336V204H35.456V202ZM3.28249 203.323L71.8265 2.29873L69.9335 1.65327L1.38951 202.677L3.28249 203.323ZM70.88 2.976H111.776V0.975998H70.88V2.976ZM110.83 2.29873L179.374 203.323L181.267 202.677L112.722 1.65327L110.83 2.29873ZM180.32 202H146.336V204H180.32V202ZM91.328 30.928H89.888V32.928H91.328V30.928ZM88.9378 31.6164L59.8498 120.32L61.7502 120.944L90.8382 32.2396L88.9378 31.6164ZM60.8 121.632H120.128V119.632H60.8V121.632ZM121.079 120.323L92.2791 31.6192L90.3769 32.2368L119.177 120.941L121.079 120.323ZM211.456 1.976V0.975998H210.456V1.976H211.456ZM339.616 16.088L338.908 16.7951L338.916 16.8022L339.616 16.088ZM350.848 73.112L351.774 73.4893L351.778 73.4776L350.848 73.112ZM342.784 86.072L343.491 86.7791L343.501 86.769L343.511 86.7586L342.784 86.072ZM331.552 93.56L331.893 94.4998L331.912 94.493L331.93 94.4855L331.552 93.56ZM319.168 96.44L319.073 95.4445L318.168 95.5307V96.44H319.168ZM319.168 98.168H318.168V99.1215L319.12 99.1669L319.168 98.168ZM332.416 101.048L332.077 101.989L332.088 101.993L332.416 101.048ZM346.24 109.4L345.567 110.14L345.576 110.148L345.586 110.157L346.24 109.4ZM356.896 123.8L355.995 124.236L356.001 124.247L356.896 123.8ZM357.184 167.864L356.248 167.51L356.244 167.521L356.24 167.533L357.184 167.864ZM346.527 186.296L345.78 185.632L346.527 186.296ZM330.112 198.68L330.525 199.59L330.537 199.585L330.548 199.58L330.112 198.68ZM211.456 203H210.456V204H211.456V203ZM244 175.064H243V176.064H244V175.064ZM244 114.008V113.008H243V114.008H244ZM244 86.936H243V87.936H244V86.936ZM313.12 80.888L313.794 81.6265L313.802 81.6187L313.811 81.6106L313.12 80.888ZM313.12 36.248L312.428 36.9706L312.437 36.9787L312.445 36.9865L313.12 36.248ZM244 29.912V28.912H243V29.912H244ZM211.456 2.976H300.448V0.975998H211.456V2.976ZM300.448 2.976C316.958 2.976 329.733 7.61976 338.908 16.7951L340.323 15.3809C330.682 5.74023 317.345 0.975998 300.448 0.975998V2.976ZM338.916 16.8022C348.291 25.9899 353.016 38.2909 353.016 53.816H355.016C355.016 37.8531 350.14 25.0021 340.315 15.3738L338.916 16.8022ZM353.016 53.816C353.016 61.2142 351.972 67.5157 349.917 72.7463L351.778 73.4776C353.947 67.9563 355.016 61.3938 355.016 53.816H353.016ZM349.921 72.7347C347.848 77.8241 345.222 82.0337 342.056 85.3854L343.511 86.7586C346.873 83.1983 349.623 78.7679 351.774 73.4893L349.921 72.7347ZM342.076 85.3649C338.905 88.5361 335.273 90.9573 331.173 92.6344L331.93 94.4855C336.278 92.7067 340.134 90.1359 343.491 86.7791L342.076 85.3649ZM331.21 92.6202C327.057 94.1304 323.012 95.0694 319.073 95.4445L319.262 97.4355C323.387 97.0426 327.598 96.0616 331.893 94.4998L331.21 92.6202ZM318.168 96.44V98.168H320.168V96.44H318.168ZM319.12 99.1669C323.03 99.3531 327.347 100.286 332.077 101.989L332.754 100.107C327.884 98.3539 323.369 97.3669 319.215 97.1691L319.12 99.1669ZM332.088 101.993C336.943 103.673 341.435 106.384 345.567 110.14L346.912 108.66C342.596 104.736 337.873 101.879 332.743 100.103L332.088 101.993ZM345.586 110.157C349.689 113.701 353.164 118.384 355.995 124.236L357.796 123.364C354.867 117.312 351.238 112.395 346.893 108.643L345.586 110.157ZM356.001 124.247C358.793 129.832 360.216 136.773 360.216 145.112H362.216C362.216 136.555 360.758 129.288 357.79 123.353L356.001 124.247ZM360.216 145.112C360.216 153.063 358.891 160.526 356.248 167.51L358.119 168.218C360.852 160.994 362.216 153.289 362.216 145.112H360.216ZM356.24 167.533C353.783 174.524 350.295 180.553 345.78 185.632L347.275 186.96C351.976 181.671 355.592 175.412 358.127 168.195L356.24 167.533ZM345.78 185.632C341.261 190.716 335.895 194.765 329.675 197.78L330.548 199.58C337 196.451 342.578 192.244 347.275 186.96L345.78 185.632ZM329.698 197.77C323.501 200.586 316.732 202 309.376 202V204C316.995 204 324.05 202.534 330.525 199.59L329.698 197.77ZM309.376 202H211.456V204H309.376V202ZM212.456 203V1.976H210.456V203H212.456ZM244 176.064H299.871V174.064H244V176.064ZM299.871 176.064C308.494 176.064 315.387 173.807 320.421 169.176L319.066 167.704C314.5 171.905 308.145 174.064 299.871 174.064V176.064ZM320.421 169.176C325.478 164.523 327.944 157.888 327.944 149.432H325.944C325.944 157.488 323.609 163.525 319.066 167.704L320.421 169.176ZM327.944 149.432V139.64H325.944V149.432H327.944ZM327.944 139.64C327.944 131.184 325.478 124.549 320.421 119.896L319.066 121.368C323.609 125.547 325.944 131.584 325.944 139.64H327.944ZM320.421 119.896C315.387 115.265 308.494 113.008 299.871 113.008V115.008C308.145 115.008 314.5 117.167 319.066 121.368L320.421 119.896ZM299.871 113.008H244V115.008H299.871V113.008ZM243 114.008V175.064H245V114.008H243ZM244 87.936H294.4V85.936H244V87.936ZM294.4 87.936C302.625 87.936 309.137 85.878 313.794 81.6265L312.445 80.1495C308.27 83.962 302.302 85.936 294.4 85.936V87.936ZM313.811 81.6106C318.472 77.1521 320.743 70.9105 320.743 63.032H318.743C318.743 70.5135 316.599 76.1759 312.428 80.1653L313.811 81.6106ZM320.743 63.032V53.816H318.743V63.032H320.743ZM320.743 53.816C320.743 45.9398 318.473 39.7815 313.794 35.5095L312.445 36.9865C316.598 40.7785 318.743 46.3321 318.743 53.816H320.743ZM313.811 35.5253C309.155 31.0723 302.636 28.912 294.4 28.912V30.912C302.291 30.912 308.252 32.9757 312.428 36.9706L313.811 35.5253ZM294.4 28.912H244V30.912H294.4V28.912ZM243 29.912V86.936H245V29.912H243ZM62.816 466.832L62.4161 467.749L62.426 467.753L62.4361 467.757L62.816 466.832ZM35.456 446.96L34.6932 447.607L34.7008 447.616L34.7086 447.624L35.456 446.96ZM17.888 414.416L16.9325 414.711L16.9351 414.72L16.9379 414.728L17.888 414.416ZM17.888 324.848L16.9365 324.54L16.9338 324.549L17.888 324.848ZM35.456 292.304L34.7014 291.648L34.7003 291.649L35.456 292.304ZM62.816 272.432L63.2018 273.355L63.2099 273.351L62.816 272.432ZM133.952 272.432L133.552 273.349L133.562 273.353L133.572 273.357L133.952 272.432ZM161.312 292.304L160.549 292.951L160.557 292.96L160.565 292.968L161.312 292.304ZM178.88 324.848L177.925 325.143L177.927 325.152L177.93 325.16L178.88 324.848ZM178.88 414.416L177.929 414.108L177.926 414.117L178.88 414.416ZM161.312 446.96L160.557 446.304L160.556 446.305L161.312 446.96ZM133.952 466.832L134.338 467.755L134.346 467.751L133.952 466.832ZM119.552 440.336L119.171 439.411L119.161 439.415L119.552 440.336ZM135.968 428.816L135.221 428.152L135.219 428.153L135.968 428.816ZM146.624 410.096L145.678 409.772L146.624 410.096ZM146.624 328.88L145.678 329.204L146.624 328.88ZM135.968 310.448L135.207 311.096L135.22 311.112L135.233 311.126L135.968 310.448ZM119.552 298.64L119.161 299.561L119.171 299.565L119.552 298.64ZM77.216 298.64L76.8255 297.719L77.216 298.64ZM60.8 310.448L60.0526 309.784L60.051 309.785L60.8 310.448ZM60.8 428.816L60.0388 429.464L60.0517 429.48L60.0652 429.494L60.8 428.816ZM77.216 440.336L76.8255 441.257L77.216 440.336ZM98.528 472.456C85.5863 472.456 73.8134 470.268 63.1959 465.907L62.4361 467.757C73.3226 472.228 85.3577 474.456 98.528 474.456V472.456ZM63.216 465.915C52.7891 461.366 43.7875 454.828 36.2034 446.296L34.7086 447.624C42.4845 456.372 51.7229 463.082 62.4161 467.749L63.216 465.915ZM36.2188 446.313C28.8271 437.595 23.0285 426.866 18.8381 414.104L16.9379 414.728C21.1955 427.694 27.1089 438.661 34.6932 447.607L36.2188 446.313ZM18.8435 414.121C14.847 401.18 12.84 386.307 12.84 369.488H10.84C10.84 386.461 12.865 401.54 16.9325 414.711L18.8435 414.121ZM12.84 369.488C12.84 352.669 14.8471 337.893 18.8422 325.147L16.9338 324.549C12.8649 337.531 10.84 352.515 10.84 369.488H12.84ZM18.8394 325.156C23.0302 312.202 28.8273 301.479 36.2117 292.959L34.7003 291.649C27.1087 300.409 21.1938 311.382 16.9366 324.54L18.8394 325.156ZM36.2106 292.96C43.7921 284.241 52.7868 277.71 63.2018 273.355L62.4302 271.509C51.7252 275.986 42.4799 282.703 34.7014 291.648L36.2106 292.96ZM63.2099 273.351C73.8237 268.802 85.5917 266.52 98.528 266.52V264.52C85.3523 264.52 73.3123 266.846 62.4221 271.513L63.2099 273.351ZM98.528 266.52C111.465 266.52 123.134 268.802 133.552 273.349L134.352 271.515C123.65 266.846 111.703 264.52 98.528 264.52V266.52ZM133.572 273.357C144.177 277.712 153.165 284.241 160.549 292.951L162.075 291.657C154.483 282.703 145.231 275.984 134.332 271.507L133.572 273.357ZM160.565 292.968C168.134 301.484 173.927 312.199 177.925 325.143L179.835 324.553C175.769 311.385 169.85 300.404 162.059 291.64L160.565 292.968ZM177.93 325.16C182.114 337.902 184.216 352.673 184.216 369.488H186.216C186.216 352.511 184.094 337.522 179.83 324.536L177.93 325.16ZM184.216 369.488C184.216 386.303 182.114 401.172 177.929 414.108L179.831 414.724C184.094 401.548 186.216 386.465 186.216 369.488H184.216ZM177.926 414.117C173.929 426.869 168.134 437.59 160.557 446.304L162.067 447.616C169.85 438.666 175.767 427.691 179.834 414.715L177.926 414.117ZM160.556 446.305C153.17 454.828 144.174 461.363 133.558 465.913L134.346 467.751C145.234 463.085 154.478 456.372 162.068 447.615L160.556 446.305ZM133.566 465.909C123.144 470.268 111.47 472.456 98.528 472.456V474.456C111.698 474.456 123.64 472.228 134.338 467.755L133.566 465.909ZM98.528 445.368C106.327 445.368 113.469 444.003 119.943 441.257L119.161 439.415C112.963 442.045 106.089 443.368 98.528 443.368V445.368ZM119.933 441.261C126.593 438.518 132.194 434.592 136.717 429.479L135.219 428.153C130.91 433.024 125.567 436.778 119.171 439.411L119.933 441.261ZM136.715 429.48C141.421 424.187 145.036 417.827 147.57 410.42L145.678 409.772C143.22 416.957 139.731 423.077 135.221 428.152L136.715 429.48ZM147.57 410.42C150.108 403.001 151.368 394.633 151.368 385.328H149.368C149.368 394.455 148.132 402.599 145.678 409.772L147.57 410.42ZM151.368 385.328V353.648H149.368V385.328H151.368ZM151.368 353.648C151.368 344.343 150.108 335.975 147.57 328.556L145.678 329.204C148.132 336.377 149.368 344.521 149.368 353.648H151.368ZM147.57 328.556C145.035 321.146 141.417 314.877 136.703 309.77L135.233 311.126C139.735 316.003 143.221 322.022 145.678 329.204L147.57 328.556ZM136.729 309.8C132.206 304.49 126.602 300.462 119.933 297.715L119.171 299.565C125.558 302.194 130.898 306.038 135.207 311.096L136.729 309.8ZM119.943 297.719C113.469 294.973 106.327 293.608 98.528 293.608V295.608C106.089 295.608 112.963 296.931 119.161 299.561L119.943 297.719ZM98.528 293.608C90.541 293.608 83.3015 294.972 76.8255 297.719L77.6066 299.561C83.8025 296.932 90.771 295.608 98.528 295.608V293.608ZM76.8255 297.719C70.3519 300.466 64.7583 304.49 60.0526 309.784L61.5474 311.112C66.0577 306.038 71.4081 302.19 77.6066 299.561L76.8255 297.719ZM60.051 309.785C55.5349 314.891 52.0179 321.155 49.4858 328.556L51.3782 329.204C53.8381 322.013 57.2331 315.989 61.549 311.111L60.051 309.785ZM49.4858 328.556C46.948 335.975 45.688 344.343 45.688 353.648H47.688C47.688 344.521 48.924 336.377 51.3782 329.204L49.4858 328.556ZM45.688 353.648V385.328H47.688V353.648H45.688ZM45.688 385.328C45.688 394.633 46.948 403.001 49.4858 410.42L51.3782 409.772C48.924 402.599 47.688 394.455 47.688 385.328H45.688ZM49.4858 410.42C52.0172 417.819 55.5312 424.173 60.0388 429.464L61.5612 428.168C57.2368 423.091 53.8388 416.965 51.3782 409.772L49.4858 410.42ZM60.0652 429.494C64.7708 434.592 70.3606 438.514 76.8255 441.257L77.6066 439.415C71.3994 436.782 66.0453 433.024 61.5348 428.138L60.0652 429.494ZM76.8255 441.257C83.3015 444.004 90.541 445.368 98.528 445.368V443.368C90.771 443.368 83.8025 442.044 77.6066 439.415L76.8255 441.257ZM256.615 268.976H257.615V267.976H256.615V268.976ZM266.407 431.408L267.205 430.805L266.407 431.408ZM343.015 268.976V267.976H342.015V268.976H343.015ZM374.983 268.976H375.983V267.976H374.983V268.976ZM370.951 425.936L369.981 425.693L370.951 425.936ZM357.991 452.72L358.749 453.373L358.758 453.362L357.991 452.72ZM334.663 468.272L334.325 467.331L334.318 467.333L334.663 468.272ZM264.679 468.272L264.334 469.211L264.341 469.213L264.679 468.272ZM241.639 452.72L240.873 453.362L240.881 453.372L241.639 452.72ZM228.679 425.936L227.709 426.179L228.679 425.936ZM224.647 268.976V267.976H223.647V268.976H224.647ZM255.615 268.976V392.816H257.615V268.976H255.615ZM255.615 392.816C255.615 410.004 258.894 423.123 265.609 432.011L267.205 430.805C260.865 422.413 257.615 409.804 257.615 392.816H255.615ZM265.609 432.011C272.401 441 283.907 445.368 299.815 445.368V443.368C284.236 443.368 273.469 439.096 267.205 430.805L265.609 432.011ZM299.815 445.368C315.724 445.368 327.229 441 334.021 432.011L332.425 430.805C326.161 439.096 315.395 443.368 299.815 443.368V445.368ZM334.021 432.011C340.737 423.123 344.015 410.004 344.015 392.816H342.015C342.015 409.804 338.766 422.413 332.425 430.805L334.021 432.011ZM344.015 392.816V268.976H342.015V392.816H344.015ZM343.015 269.976H374.983V267.976H343.015V269.976ZM373.983 268.976V387.632H375.983V268.976H373.983ZM373.983 387.632C373.983 402.36 372.644 415.042 369.981 425.693L371.921 426.179C374.635 415.326 375.983 402.472 375.983 387.632H373.983ZM369.981 425.693C367.323 436.327 363.062 445.11 357.225 452.078L358.758 453.362C364.824 446.122 369.204 437.049 371.921 426.179L369.981 425.693ZM357.233 452.068C351.407 458.834 343.782 463.926 334.325 467.331L335.002 469.213C344.745 465.706 352.672 460.43 358.749 453.372L357.233 452.068ZM334.318 467.333C325.054 470.737 313.563 472.456 299.815 472.456V474.456C313.715 474.456 325.456 472.719 335.008 469.211L334.318 467.333ZM299.815 472.456C286.068 472.456 274.478 470.737 265.018 467.331L264.341 469.213C274.08 472.719 285.914 474.456 299.815 474.456V472.456ZM265.024 467.333C255.76 463.93 248.227 458.838 242.397 452.068L240.881 453.372C246.955 460.426 254.783 465.702 264.334 469.211L265.024 467.333ZM242.406 452.078C236.568 445.11 232.308 436.327 229.649 425.693L227.709 426.179C230.427 437.049 234.806 446.122 240.873 453.362L242.406 452.078ZM229.649 425.693C226.987 415.042 225.647 402.36 225.647 387.632H223.647C223.647 402.472 224.996 415.326 227.709 426.179L229.649 425.693ZM225.647 387.632V268.976H223.647V387.632H225.647ZM224.647 269.976H256.615V267.976H224.647V269.976ZM95.36 563.776V562.776H94.36V563.776H95.36ZM95.36 736V737H96.36V736H95.36ZM62.816 736H61.816V737H62.816V736ZM62.816 563.776H63.816V562.776H62.816V563.776ZM2.912 563.776H1.912V564.776H2.912V563.776ZM2.912 534.976V533.976H1.912V534.976H2.912ZM155.264 534.976H156.264V533.976H155.264V534.976ZM155.264 563.776V564.776H156.264V563.776H155.264ZM94.36 563.776V736H96.36V563.776H94.36ZM95.36 735H62.816V737H95.36V735ZM63.816 736V563.776H61.816V736H63.816ZM62.816 562.776H2.912V564.776H62.816V562.776ZM3.912 563.776V534.976H1.912V563.776H3.912ZM2.912 535.976H155.264V533.976H2.912V535.976ZM154.264 534.976V563.776H156.264V534.976H154.264ZM155.264 562.776H95.36V564.776H155.264V562.776Z" fill="white"/>
</svg>
