<svg width="21" height="21" viewBox="0 0 21 21" fill="none" xmlns="http://www.w3.org/2000/svg">
<path d="M11.0642 0.272216C10.501 -0.0985655 9.76634 -0.0900343 9.21171 0.294528L0.912844 6.04656C0.470334 6.35368 0.206543 6.85572 0.206543 7.39318V13.5908C0.206543 14.1421 0.484183 14.6559 0.946477 14.9597L9.3812 20.5083C9.93252 20.8712 10.6487 20.8712 11.2 20.5083L19.8023 14.8528C20.2639 14.5489 20.5422 14.0351 20.5422 13.4838V7.3945C20.5422 6.8439 20.2646 6.33006 19.8029 6.02622L11.0642 0.272216ZM17.4895 6.98565L14.3101 9.10993L11.3286 6.95218L11.3095 2.70822L17.4895 6.98565ZM9.15236 2.71215V6.86556L6.097 8.99181L3.04955 6.95809L9.15236 2.71215ZM2.21399 9.00493L4.18649 10.3201L2.21399 11.6936V9.00493ZM9.20446 17.8597L3.05087 13.7529L6.1247 11.6148L9.20446 13.6709V17.8597ZM8.03587 10.2859L10.0281 8.89928L12.3489 10.4172L10.2919 11.792L8.03587 10.2859ZM11.3781 17.8597V13.6696L14.3213 11.7067L17.4901 13.7798L11.3781 17.8597ZM18.3686 11.7645L16.2793 10.3982L18.3686 9.00362V11.7645Z" fill="white" fill-opacity="0.5"/>
</svg>
