<svg width="22" height="21" viewBox="0 0 22 21" fill="none" xmlns="http://www.w3.org/2000/svg">
<path d="M20.3031 5.36061C19.3301 3.71151 18.0102 2.40591 16.3431 1.44353C14.6759 0.481094 12.8557 0 10.8813 0C8.90716 0 7.08638 0.481241 5.41943 1.44353C3.75223 2.40586 2.43241 3.71151 1.45937 5.36061C0.486472 7.00966 0 8.81044 0 10.7629C0 13.1082 0.69177 15.2172 2.07566 17.0904C3.4594 18.9637 5.24698 20.26 7.43827 20.9794C7.69334 21.0262 7.88216 20.9933 8.00493 20.8814C8.12776 20.7694 8.18909 20.6291 8.18909 20.4611C8.18909 20.4331 8.18666 20.1809 8.18194 19.7043C8.17708 19.2278 8.1748 18.812 8.1748 18.4573L7.84891 18.513C7.64113 18.5507 7.37901 18.5666 7.06256 18.5621C6.74625 18.5577 6.41788 18.525 6.0779 18.464C5.73777 18.4036 5.42141 18.2634 5.12858 18.0439C4.83589 17.8243 4.62811 17.5369 4.50529 17.1821L4.36361 16.8596C4.26918 16.6449 4.1205 16.4064 3.91738 16.145C3.71427 15.8833 3.50887 15.7059 3.30109 15.6125L3.20189 15.5422C3.13579 15.4955 3.07446 15.4392 3.01774 15.3739C2.96106 15.3086 2.91864 15.2432 2.8903 15.1777C2.86191 15.1122 2.88544 15.0584 2.96111 15.0163C3.03679 14.9741 3.17356 14.9536 3.37201 14.9536L3.65527 14.9955C3.84419 15.033 4.07787 15.1448 4.35661 15.3318C4.63521 15.5186 4.86423 15.7615 5.04372 16.0603C5.26108 16.4435 5.52295 16.7355 5.83007 16.9364C6.13695 17.1373 6.44637 17.2376 6.75801 17.2376C7.06965 17.2376 7.33882 17.2142 7.5656 17.1677C7.79214 17.121 8.00468 17.0507 8.20313 16.9574C8.28814 16.3311 8.51959 15.85 8.89729 15.5138C8.35896 15.4578 7.87497 15.3735 7.44507 15.2615C7.01541 15.1492 6.57142 14.9671 6.11338 14.7146C5.6551 14.4625 5.27492 14.1494 4.97276 13.7758C4.67054 13.4021 4.42252 12.9114 4.22903 12.3043C4.03544 11.6969 3.93862 10.9962 3.93862 10.2021C3.93862 9.07138 4.3118 8.10919 5.05801 7.31498C4.70845 6.4649 4.74145 5.51194 5.15711 4.4562C5.43104 4.37201 5.83727 4.43519 6.3756 4.64533C6.91403 4.85556 7.30825 5.03566 7.55866 5.18498C7.80906 5.33425 8.0097 5.46075 8.16085 5.56334C9.03946 5.32051 9.94616 5.19907 10.8812 5.19907C11.8162 5.19907 12.7231 5.32051 13.6018 5.56334L14.1402 5.22714C14.5083 5.00282 14.9431 4.79725 15.4434 4.61038C15.944 4.4236 16.3268 4.37216 16.5914 4.45634C17.0163 5.51214 17.0542 6.46505 16.7045 7.31513C17.4507 8.10934 17.824 9.07177 17.824 10.2022C17.824 10.9963 17.7268 11.6992 17.5335 12.3113C17.34 12.9234 17.0899 13.4136 16.783 13.7828C16.4757 14.152 16.0931 14.4627 15.6351 14.7148C15.177 14.9671 14.7328 15.1492 14.3032 15.2614C13.8733 15.3736 13.3893 15.4579 12.851 15.514C13.342 15.9343 13.5875 16.5977 13.5875 17.5039V20.4607C13.5875 20.6287 13.6466 20.7689 13.7648 20.881C13.8828 20.9929 14.0693 21.0258 14.3244 20.9789C16.5159 20.2597 18.3035 18.9633 19.6872 17.09C21.0708 15.2168 21.7628 13.1078 21.7628 10.7625C21.7623 8.81029 21.2756 7.00966 20.3031 5.36061Z" fill="white" fill-opacity="0.5"/>
</svg>
