<svg width="22" height="21" viewBox="0 0 22 21" fill="none" xmlns="http://www.w3.org/2000/svg">
<path d="M22 12.4153V20.25H17.4778V12.94C17.4778 11.1036 16.8238 9.85042 15.1869 9.85042C13.9374 9.85042 13.1938 10.695 12.8667 11.512C12.7474 11.8041 12.7167 12.2106 12.7167 12.6194V20.25H8.19302C8.19302 20.25 8.25394 7.86923 8.19302 6.58649H12.7162V8.52324C12.707 8.53772 12.6951 8.55334 12.6865 8.56738H12.7162V8.52324C13.3172 7.59357 14.3904 6.2655 16.7926 6.2655C19.7688 6.26545 22 8.21836 22 12.4153ZM3.46111 0C1.91358 0 0.901367 1.01954 0.901367 2.36027C0.901367 3.67179 1.88429 4.72227 3.40107 4.72227H3.43128C5.00878 4.72227 5.98985 3.67198 5.98985 2.36027C5.96012 1.01954 5.00878 0 3.46111 0ZM1.17003 20.25H5.69195V6.58649H1.17003V20.25Z" fill="white" fill-opacity="0.5"/>
</svg>
