<svg width="450" height="741" viewBox="0 0 450 741" fill="none" xmlns="http://www.w3.org/2000/svg">
<path opacity="0.5" d="M49.432 206L48.4588 206.23L48.6408 207H49.432V206ZM1.912 4.976V3.976H0.64805L0.938821 5.20605L1.912 4.976ZM35.032 4.976L36.0104 4.76925L35.8428 3.976H35.032V4.976ZM55.48 101.744L56.4584 101.537L56.4584 101.537L55.48 101.744ZM69.592 168.56L68.6136 168.767L68.7811 169.56H69.592V168.56ZM70.456 168.56V169.56H71.2433L71.4281 168.795L70.456 168.56ZM86.584 101.744L85.6132 101.504L85.6119 101.509L86.584 101.744ZM110.488 4.976V3.976H109.705L109.517 4.73618L110.488 4.976ZM146.776 4.976L147.747 4.73891L147.561 3.976H146.776V4.976ZM170.392 101.744L171.365 101.512L171.363 101.507L170.392 101.744ZM186.232 168.272L185.259 168.504L185.442 169.272H186.232V168.272ZM187.096 168.272V169.272H187.899L188.072 168.488L187.096 168.272ZM201.784 101.744L202.761 101.96L202.761 101.956L201.784 101.744ZM222.808 4.976V3.976H222.002L221.831 4.76369L222.808 4.976ZM254.776 4.976L255.747 5.21526L256.052 3.976H254.776V4.976ZM205.24 206V207H206.023L206.211 206.239L205.24 206ZM168.664 206L167.693 206.239L167.881 207H168.664V206ZM143.032 102.032L142.061 102.27L142.061 102.271L143.032 102.032ZM128.056 40.976L129.027 40.7378L128.84 39.976H128.056V40.976ZM127.48 40.976V39.976H126.699L126.51 40.7335L127.48 40.976ZM112.216 102.032L113.186 102.276L113.186 102.275L112.216 102.032ZM86.008 206V207H86.7872L86.9777 206.244L86.008 206ZM50.4052 205.77L2.88518 4.74595L0.938821 5.20605L48.4588 206.23L50.4052 205.77ZM1.912 5.976H35.032V3.976H1.912V5.976ZM34.0536 5.18274L54.5016 101.951L56.4584 101.537L36.0104 4.76925L34.0536 5.18274ZM54.5016 101.951L68.6136 168.767L70.5704 168.353L56.4584 101.537L54.5016 101.951ZM69.592 169.56H70.456V167.56H69.592V169.56ZM71.4281 168.795L87.5561 101.979L85.6119 101.509L69.4839 168.325L71.4281 168.795ZM87.5548 101.984L111.459 5.21581L109.517 4.73618L85.6132 101.504L87.5548 101.984ZM110.488 5.976H146.776V3.976H110.488V5.976ZM145.805 5.21309L169.421 101.981L171.363 101.507L147.747 4.73891L145.805 5.21309ZM169.419 101.976L185.259 168.504L187.205 168.04L171.365 101.512L169.419 101.976ZM186.232 169.272H187.096V167.272H186.232V169.272ZM188.072 168.488L202.76 101.96L200.808 101.528L186.12 168.056L188.072 168.488ZM202.761 101.956L223.785 5.1883L221.831 4.76369L200.807 101.532L202.761 101.956ZM222.808 5.976H254.776V3.976H222.808V5.976ZM253.805 4.73673L204.269 205.761L206.211 206.239L255.747 5.21526L253.805 4.73673ZM205.24 205H168.664V207H205.24V205ZM169.635 205.761L144.003 101.793L142.061 102.271L167.693 206.239L169.635 205.761ZM144.003 101.794L129.027 40.7378L127.085 41.2142L142.061 102.27L144.003 101.794ZM128.056 39.976H127.48V41.976H128.056V39.976ZM126.51 40.7335L111.246 101.789L113.186 102.275L128.45 41.2185L126.51 40.7335ZM111.246 101.788L85.0383 205.756L86.9777 206.244L113.186 102.276L111.246 101.788ZM86.008 205H49.432V207H86.008V205ZM325.629 202.832L325.229 203.749L325.239 203.753L325.249 203.757L325.629 202.832ZM298.268 182.96L297.506 183.607L297.513 183.616L297.521 183.624L298.268 182.96ZM280.701 150.416L279.745 150.711L279.748 150.72L279.75 150.728L280.701 150.416ZM280.701 60.848L279.749 60.5402L279.746 60.5489L280.701 60.848ZM298.268 28.304L297.514 27.6478L297.513 27.6491L298.268 28.304ZM325.629 8.43198L326.014 9.3546L326.022 9.35113L325.629 8.43198ZM396.764 8.43198L396.365 9.34853L396.375 9.35287L396.385 9.357L396.764 8.43198ZM424.125 28.304L423.362 28.9507L423.369 28.9596L423.377 28.9684L424.125 28.304ZM441.693 60.848L440.737 61.1431L440.74 61.1516L440.742 61.16L441.693 60.848ZM441.693 150.416L440.741 150.108L440.738 150.117L441.693 150.416ZM424.125 182.96L423.37 182.304L423.369 182.305L424.125 182.96ZM396.764 202.832L397.15 203.755L397.158 203.751L396.764 202.832ZM382.365 176.336L381.984 175.411L381.974 175.415L382.365 176.336ZM398.781 164.816L398.033 164.152L398.032 164.153L398.781 164.816ZM409.436 146.096L408.49 145.772L409.436 146.096ZM409.436 64.88L408.49 65.2037L409.436 64.88ZM398.781 46.448L398.019 47.0965L398.032 47.1116L398.046 47.1263L398.781 46.448ZM382.365 34.64L381.974 35.5606L381.984 35.5647L382.365 34.64ZM340.029 34.64L339.638 33.7194V33.7194L340.029 34.64ZM323.612 46.448L322.865 45.7836L322.863 45.7854L323.612 46.448ZM323.612 164.816L322.851 165.464L322.864 165.48L322.878 165.494L323.612 164.816ZM340.029 176.336L339.638 177.257L340.029 176.336ZM361.341 208.456C348.399 208.456 336.626 206.268 326.008 201.907L325.249 203.757C336.135 208.228 348.17 210.456 361.341 210.456V208.456ZM326.028 201.915C315.602 197.366 306.6 190.828 299.016 182.296L297.521 183.624C305.297 192.372 314.535 199.082 325.229 203.749L326.028 201.915ZM299.031 182.313C291.64 173.595 285.841 162.866 281.651 150.104L279.75 150.728C284.008 163.694 289.921 174.661 297.506 183.607L299.031 182.313ZM281.656 150.121C277.66 137.18 275.652 122.307 275.652 105.488H273.652C273.652 122.461 275.677 137.54 279.745 150.711L281.656 150.121ZM275.652 105.488C275.652 88.6689 277.66 73.8934 281.655 61.1471L279.746 60.5489C275.677 73.5306 273.652 88.5151 273.652 105.488H275.652ZM281.652 61.1558C285.843 48.2024 291.64 37.4794 299.024 28.9589L297.513 27.6491C289.921 36.4086 284.006 47.3815 279.749 60.5402L281.652 61.1558ZM299.023 28.9602C306.605 20.2414 315.599 13.7099 326.014 9.35457L325.243 7.50941C314.538 11.9861 305.292 18.7026 297.514 27.6478L299.023 28.9602ZM326.022 9.35113C336.636 4.80235 348.404 2.51999 361.341 2.51999V0.519989C348.165 0.519989 336.125 2.84563 325.235 7.51284L326.022 9.35113ZM361.341 2.51999C374.277 2.51999 385.946 4.80245 396.365 9.34853L397.164 7.51545C386.463 2.84553 374.516 0.519989 361.341 0.519989V2.51999ZM396.385 9.357C406.989 13.7124 415.978 20.2412 423.362 28.9507L424.887 27.6573C417.295 18.7027 408.044 11.9835 397.144 7.50697L396.385 9.357ZM423.377 28.9684C430.946 37.4839 436.74 48.1991 440.737 61.1431L442.648 60.5529C438.581 47.3849 432.663 36.4041 424.872 27.6396L423.377 28.9684ZM440.742 61.16C444.926 73.9019 447.029 88.6729 447.029 105.488H449.029C449.029 88.5112 446.907 73.5221 442.643 60.536L440.742 61.16ZM447.029 105.488C447.029 122.303 444.926 137.172 440.741 150.108L442.644 150.724C446.907 137.548 449.029 122.465 449.029 105.488H447.029ZM440.738 150.117C436.741 162.869 430.947 173.59 423.37 182.304L424.879 183.616C432.662 174.666 438.58 163.691 442.647 150.715L440.738 150.117ZM423.369 182.305C415.982 190.828 406.987 197.363 396.371 201.913L397.158 203.751C408.046 199.085 417.291 192.372 424.88 183.615L423.369 182.305ZM396.379 201.909C385.957 206.268 374.283 208.456 361.341 208.456V210.456C374.51 210.456 386.452 208.228 397.15 203.755L396.379 201.909ZM361.341 181.368C369.139 181.368 376.282 180.003 382.755 177.257L381.974 175.415C375.775 178.045 368.902 179.368 361.341 179.368V181.368ZM382.745 177.261C389.406 174.518 395.006 170.592 399.53 165.479L398.032 164.153C393.723 169.024 388.379 172.778 381.984 175.411L382.745 177.261ZM399.528 165.48C404.233 160.187 407.849 153.827 410.383 146.42L408.49 145.772C406.033 152.957 402.544 159.077 398.033 164.152L399.528 165.48ZM410.383 146.42C412.921 139.001 414.181 130.633 414.181 121.328H412.181C412.181 130.455 410.945 138.599 408.49 145.772L410.383 146.42ZM414.181 121.328V89.648H412.181V121.328H414.181ZM414.181 89.648C414.181 80.3427 412.921 71.9746 410.383 64.5563L408.49 65.2037C410.945 72.3774 412.181 80.5212 412.181 89.648H414.181ZM410.383 64.5563C407.848 57.1465 404.23 50.8769 399.515 45.7697L398.046 47.1263C402.547 52.0031 406.033 58.0215 408.49 65.2037L410.383 64.5563ZM399.542 45.7995C395.019 40.49 389.415 36.4615 382.745 33.7153L381.984 35.5647C388.37 38.1944 393.71 42.038 398.019 47.0965L399.542 45.7995ZM382.755 33.7194C376.282 30.9732 369.139 29.608 361.341 29.608V31.608C368.902 31.608 375.775 32.9307 381.974 35.5606L382.755 33.7194ZM361.341 29.608C353.353 29.608 346.114 30.972 339.638 33.7194L340.419 35.5606C346.615 32.932 353.584 31.608 361.341 31.608V29.608ZM339.638 33.7194C333.164 36.4658 327.571 40.4897 322.865 45.7836L324.36 47.1124C328.87 42.0383 334.221 38.1902 340.419 35.5606L339.638 33.7194ZM322.863 45.7854C318.347 50.8905 314.83 57.1548 312.298 64.5563L314.191 65.2037C316.651 58.0132 320.046 51.9895 324.362 47.1106L322.863 45.7854ZM312.298 64.5563C309.76 71.9746 308.501 80.3427 308.501 89.648H310.501C310.501 80.5212 311.736 72.3774 314.191 65.2037L312.298 64.5563ZM308.501 89.648V121.328H310.501V89.648H308.501ZM308.501 121.328C308.501 130.633 309.76 139.001 312.298 146.42L314.191 145.772C311.736 138.599 310.501 130.455 310.501 121.328H308.501ZM312.298 146.42C314.83 153.819 318.344 160.173 322.851 165.464L324.374 164.168C320.049 159.091 316.651 152.965 314.191 145.772L312.298 146.42ZM322.878 165.494C327.583 170.592 333.173 174.514 339.638 177.257L340.419 175.415C334.212 172.782 328.858 169.024 324.347 164.138L322.878 165.494ZM339.638 177.257C346.114 180.004 353.353 181.368 361.341 181.368V179.368C353.584 179.368 346.615 178.044 340.419 175.415L339.638 177.257ZM52.312 471V472H53.312V471H52.312ZM19.768 471H18.768V472H19.768V471ZM19.768 269.976V268.976H18.768V269.976H19.768ZM149.08 286.392L148.354 287.08L148.36 287.086L149.08 286.392ZM154.552 366.456L153.733 365.883L153.73 365.886L154.552 366.456ZM125.464 386.328L125.178 385.37L124.025 385.714L124.574 386.785L125.464 386.328ZM168.952 471V472H170.59L169.842 470.543L168.952 471ZM132.664 471L131.768 471.445L132.044 472H132.664V471ZM92.344 389.784L93.2397 389.339L92.964 388.784H92.344V389.784ZM52.312 389.784V388.784H51.312V389.784H52.312ZM123.448 356.088L124.124 356.825L124.132 356.818L124.14 356.81L123.448 356.088ZM123.448 305.112L122.756 305.834L122.764 305.842L122.772 305.849L123.448 305.112ZM52.312 298.488V297.488H51.312V298.488H52.312ZM52.312 362.424H51.312V363.424H52.312V362.424ZM52.312 470H19.768V472H52.312V470ZM20.768 471V269.976H18.768V471H20.768ZM19.768 270.976H106.456V268.976H19.768V270.976ZM106.456 270.976C124.288 270.976 138.212 276.374 148.354 287.08L149.806 285.704C139.212 274.522 124.72 268.976 106.456 268.976V270.976ZM148.36 287.086C158.507 297.608 163.632 312.024 163.632 330.456H165.632C165.632 311.64 160.389 296.68 149.8 285.698L148.36 287.086ZM163.632 330.456C163.632 344.698 160.311 356.486 153.733 365.883L155.371 367.029C162.234 357.226 165.632 345.014 165.632 330.456H163.632ZM153.73 365.886C147.353 375.077 137.864 381.583 125.178 385.37L125.75 387.286C138.792 383.393 148.695 376.651 155.374 367.026L153.73 365.886ZM124.574 386.785L168.062 471.457L169.842 470.543L126.354 385.871L124.574 386.785ZM168.952 470H132.664V472H168.952V470ZM133.56 470.555L93.2397 389.339L91.4483 390.229L131.768 471.445L133.56 470.555ZM92.344 388.784H52.312V390.784H92.344V388.784ZM51.312 389.784V471H53.312V389.784H51.312ZM104.152 363.424C112.576 363.424 119.279 361.267 124.124 356.825L122.772 355.351C118.401 359.357 112.24 361.424 104.152 361.424V363.424ZM124.14 356.81C128.994 352.159 131.36 345.628 131.36 337.368H129.36C129.36 345.236 127.118 351.185 122.756 355.366L124.14 356.81ZM131.36 337.368V323.544H129.36V337.368H131.36ZM131.36 323.544C131.36 315.286 128.994 308.84 124.124 304.375L122.772 305.849C127.118 309.832 129.36 315.674 129.36 323.544H131.36ZM124.14 304.39C119.296 299.748 112.587 297.488 104.152 297.488V299.488C112.229 299.488 118.384 301.644 122.756 305.834L124.14 304.39ZM104.152 297.488H52.312V299.488H104.152V297.488ZM51.312 298.488V362.424H53.312V298.488H51.312ZM52.312 363.424H104.152V361.424H52.312V363.424ZM268.679 377.112L269.517 376.567L268.796 375.457L267.925 376.454L268.679 377.112ZM241.031 408.792L240.277 408.134L240.031 408.417V408.792H241.031ZM241.031 471V472H242.031V471H241.031ZM208.487 471H207.487V472H208.487V471ZM208.487 269.976V268.976H207.487V269.976H208.487ZM241.031 269.976H242.031V268.976H241.031V269.976ZM241.031 371.928H240.031V372.928H241.031V371.928ZM242.183 371.928V372.928H242.668L242.968 372.547L242.183 371.928ZM270.983 335.352L270.213 334.714L270.205 334.724L270.197 334.733L270.983 335.352ZM325.127 269.976V268.976H324.657L324.357 269.338L325.127 269.976ZM363.143 269.976L363.906 270.622L365.3 268.976H363.143V269.976ZM291.431 354.648L290.668 354.002L290.181 354.576L290.598 355.202L291.431 354.648ZM368.903 471V472H370.77L369.735 470.446L368.903 471ZM329.735 471L328.896 471.545L329.192 472H329.735V471ZM267.925 376.454L240.277 408.134L241.784 409.45L269.432 377.77L267.925 376.454ZM240.031 408.792V471H242.031V408.792H240.031ZM241.031 470H208.487V472H241.031V470ZM209.487 471V269.976H207.487V471H209.487ZM208.487 270.976H241.031V268.976H208.487V270.976ZM240.031 269.976V371.928H242.031V269.976H240.031ZM241.031 372.928H242.183V370.928H241.031V372.928ZM242.968 372.547L271.768 335.971L270.197 334.733L241.397 371.309L242.968 372.547ZM271.753 335.99L325.897 270.614L324.357 269.338L270.213 334.714L271.753 335.99ZM325.127 270.976H363.143V268.976H325.127V270.976ZM362.38 269.33L290.668 354.002L292.194 355.294L363.906 270.622L362.38 269.33ZM290.598 355.202L368.07 471.554L369.735 470.446L292.263 354.094L290.598 355.202ZM368.903 470H329.735V472H368.903V470ZM330.573 470.455L269.517 376.567L267.84 377.657L328.896 471.545L330.573 470.455ZM36.76 730.24L36.2954 731.126L36.3014 731.129L36.76 730.24ZM6.52 705.472L5.83668 704.742L5.155 705.38L5.74477 706.104L6.52 705.472ZM28.984 684.448L29.7564 683.813L29.0792 682.989L28.3007 683.718L28.984 684.448ZM52.312 704.032L51.8487 704.918L51.8569 704.922L52.312 704.032ZM110.776 702.016L110.114 701.266L110.776 702.016ZM89.176 649.6L89.369 648.619L89.3599 648.617L89.3507 648.615L89.176 649.6ZM71.32 646.432L71.1369 647.415L71.1453 647.417L71.32 646.432ZM17.464 565.216L16.5602 564.788L16.5553 564.798L17.464 565.216ZM31.576 547.072L32.2038 547.85L32.2066 547.848L31.576 547.072ZM122.296 539.584L121.861 540.485L121.874 540.491L122.296 539.584ZM150.808 562.336L151.471 563.084L152.178 562.458L151.593 561.717L150.808 562.336ZM128.056 582.496L127.264 583.107L127.918 583.954L128.719 583.244L128.056 582.496ZM109.048 566.368L109.522 565.487L109.048 566.368ZM54.328 567.232L54.9162 568.041L54.328 567.232ZM52.6 606.4L51.9683 607.175L51.9771 607.182L51.9861 607.189L52.6 606.4ZM76.792 615.616L76.9972 614.637L76.9894 614.636L76.9815 614.634L76.792 615.616ZM94.648 619.36L94.4428 620.339L94.4518 620.341L94.4609 620.342L94.648 619.36ZM138.712 638.944L138.005 639.651L138.012 639.658L138.712 638.944ZM133.528 722.464L134.187 723.217L134.188 723.215L133.528 722.464ZM110.776 735.136L111.08 736.089L111.089 736.086L111.098 736.083L110.776 735.136ZM79.96 738.456C63.1829 738.456 48.9486 735.406 37.2186 729.351L36.3014 731.129C48.3794 737.362 62.9451 740.456 79.96 740.456V738.456ZM37.2246 729.354C25.6336 723.274 15.6589 715.105 7.29524 704.84L5.74477 706.104C14.2771 716.575 24.4624 724.918 36.2955 731.126L37.2246 729.354ZM7.20332 706.202L29.6673 685.178L28.3007 683.718L5.83668 704.742L7.20332 706.202ZM28.2116 685.083C35.3862 693.809 43.2631 700.43 51.8488 704.918L52.7753 703.146C44.4649 698.802 36.7898 692.367 29.7564 683.813L28.2116 685.083ZM51.8569 704.922C60.6549 709.419 70.6062 711.656 81.688 711.656V709.656C70.8818 709.656 61.2491 707.477 52.7671 703.142L51.8569 704.922ZM81.688 711.656C94.6821 711.656 104.657 708.749 111.438 702.766L110.114 701.266C103.839 706.803 94.422 709.656 81.688 709.656V711.656ZM111.438 702.766C118.209 696.791 121.568 688.727 121.568 678.688H119.568C119.568 688.233 116.399 695.721 110.114 701.266L111.438 702.766ZM121.568 678.688C121.568 670.61 119.197 664.094 114.363 659.261L112.949 660.675C117.331 665.058 119.568 671.022 119.568 678.688H121.568ZM114.363 659.261C109.54 654.438 101.136 650.934 89.369 648.619L88.983 650.581C100.64 652.874 108.556 656.282 112.949 660.675L114.363 659.261ZM89.3507 648.615L71.4947 645.447L71.1453 647.417L89.0013 650.585L89.3507 648.615ZM71.5031 645.449C52.0223 641.82 37.5419 635.444 27.9414 626.408L26.5706 627.864C36.5541 637.26 51.4497 643.748 71.1369 647.415L71.5031 645.449ZM27.9414 626.408C18.3897 617.418 13.568 605.032 13.568 589.12H11.568C11.568 605.464 16.5383 618.422 26.5706 627.864L27.9414 626.408ZM13.568 589.12C13.568 580.413 15.1762 572.591 18.3727 565.633L16.5553 564.798C13.2238 572.049 11.568 580.163 11.568 589.12H13.568ZM18.3677 565.644C21.763 558.476 26.3755 552.551 32.2038 547.85L30.9482 546.294C24.8725 551.193 20.077 557.364 16.5603 564.788L18.3677 565.644ZM32.2066 547.848C38.2387 542.947 45.5134 539.162 54.0491 536.507L53.4549 534.597C44.7106 537.318 37.2013 541.213 30.9454 546.296L32.2066 547.848ZM54.0491 536.507C62.5768 533.854 72.1703 532.52 82.84 532.52V530.52C72.0057 530.52 62.2072 531.874 53.4549 534.597L54.0491 536.507ZM82.84 532.52C97.8909 532.52 110.888 535.187 121.861 540.485L122.731 538.683C111.432 533.229 98.1251 530.52 82.84 530.52V532.52ZM121.874 540.491C132.863 545.606 142.244 553.09 150.023 562.955L151.593 561.717C143.628 551.614 134.001 543.93 122.718 538.677L121.874 540.491ZM150.145 561.588L127.393 581.748L128.719 583.244L151.471 563.084L150.145 561.588ZM128.848 581.885C123.578 575.054 117.134 569.586 109.522 565.487L108.574 567.248C115.939 571.214 122.166 576.498 127.264 583.107L128.848 581.885ZM109.522 565.487C101.85 561.357 92.364 559.32 81.112 559.32V561.32C92.132 561.32 101.27 563.315 108.574 567.248L109.522 565.487ZM81.112 559.32C69.4756 559.32 60.3102 561.645 53.7398 566.423L54.9162 568.041C61.0178 563.603 69.7085 561.32 81.112 561.32V559.32ZM53.7398 566.423C47.1093 571.245 43.824 578.287 43.824 587.392H45.824C45.824 578.833 48.8747 572.435 54.9162 568.041L53.7398 566.423ZM43.824 587.392C43.824 596.054 46.4918 602.713 51.9683 607.175L53.2317 605.625C48.3402 601.639 45.824 595.626 45.824 587.392H43.824ZM51.9861 607.189C57.3527 611.363 65.5978 614.474 76.6025 616.598L76.9815 614.634C66.0982 612.534 58.2153 609.501 53.2139 605.611L51.9861 607.189ZM76.5868 616.595L94.4428 620.339L94.8532 618.381L76.9972 614.637L76.5868 616.595ZM94.4609 620.342C114.528 624.165 128.991 630.637 138.005 639.651L139.419 638.237C130.001 628.819 115.088 622.235 94.8351 618.378L94.4609 620.342ZM138.012 639.658C147.187 648.646 151.824 661.036 151.824 676.96H153.824C153.824 660.628 149.053 647.674 139.412 638.23L138.012 639.658ZM151.824 676.96C151.824 686.251 150.213 694.659 147.008 702.201L148.848 702.983C152.171 695.165 153.824 686.485 153.824 676.96H151.824ZM147.008 702.201C143.803 709.741 139.093 716.243 132.868 721.713L134.188 723.215C140.635 717.549 145.525 710.803 148.848 702.983L147.008 702.201ZM132.87 721.711C126.839 726.988 119.375 731.152 110.454 734.189L111.098 736.083C120.226 732.976 127.929 728.692 134.187 723.217L132.87 721.711ZM110.472 734.183C101.565 737.026 91.3983 738.456 79.96 738.456V740.456C91.5617 740.456 101.939 739.006 111.08 736.089L110.472 734.183Z" fill="white"/>
</svg>
